<svg xmlns="http://www.w3.org/2000/svg" viewBox="0 0 256 256" width="256" height="256">
  <defs>
    <linearGradient id="bg" x1="20" y1="18" x2="228" y2="232" gradientUnits="userSpaceOnUse">
      <stop offset="0" stop-color="#0a7cff"/>
      <stop offset="0.55" stop-color="#234dff"/>
      <stop offset="1" stop-color="#31d3da"/>
    </linearGradient>
    <linearGradient id="bookEdge" x1="60" y1="78" x2="193" y2="184" gradientUnits="userSpaceOnUse">
      <stop offset="0" stop-color="#f8fbff"/>
      <stop offset="1" stop-color="#d6e6ff"/>
    </linearGradient>
    <linearGradient id="ink" x1="146" y1="66" x2="198" y2="184" gradientUnits="userSpaceOnUse">
      <stop offset="0" stop-color="#1e7dff"/>
      <stop offset="1" stop-color="#0d378d"/>
    </linearGradient>
    <filter id="shadow" x="-30%" y="-30%" width="160%" height="160%">
      <feDropShadow dx="0" dy="10" stdDeviation="10" flood-color="#06122e" flood-opacity="0.35"/>
    </filter>
  </defs>

  <rect width="256" height="256" fill="url(#bg)"/>
  <circle cx="62" cy="62" r="40" fill="#79e3ff" opacity="0.16"/>
  <circle cx="210" cy="48" r="42" fill="#d48cff" opacity="0.18"/>
  <circle cx="216" cy="214" r="50" fill="#77f0d5" opacity="0.2"/>

  <g opacity="0.92">
    <path d="M34 120h18M34 138h26M34 156h18M204 112h18M204 130h20M204 148h18" stroke="#8ef2ff" stroke-width="4.5" stroke-linecap="round"/>
    <circle cx="28" cy="120" r="6" fill="#dffcff"/>
    <circle cx="28" cy="156" r="6" fill="#dffcff"/>
    <circle cx="198" cy="112" r="6" fill="#dffcff"/>
    <circle cx="198" cy="148" r="6" fill="#dffcff"/>
  </g>

  <g filter="url(#shadow)">
    <path d="M60 72c18 0 39 3 58 14 19-11 40-14 58-14 8 0 15 7 15 15v92c0 8-7 15-15 15-18 0-38 3-58 13-20-10-40-13-58-13-8 0-15-7-15-15V87c0-8 7-15 15-15z" fill="#0d2c73" opacity="0.22"/>
    <path d="M64 68c17 0 37 3 56 13 19-10 39-13 56-13 8 0 14 6 14 14v90c0 8-6 14-14 14-17 0-37 3-56 13-19-10-39-13-56-13-8 0-14-6-14-14V82c0-8 6-14 14-14z" fill="url(#bookEdge)"/>
    <path d="M120 81v98" stroke="#b4c8f3" stroke-width="4" stroke-linecap="round"/>
    <path d="M74 92h18a6 6 0 0 1 6 6v18a6 6 0 0 1-6 6H74a6 6 0 0 1-6-6V98a6 6 0 0 1 6-6z" fill="#2b64de"/>
    <path d="m74 106 8 8 14-18" fill="none" stroke="#fff" stroke-width="5.5" stroke-linecap="round" stroke-linejoin="round"/>
    <path d="M104 99h30M104 112h22M72 136h54M72 148h46M72 160h38" stroke="#75a2ea" stroke-width="4.5" stroke-linecap="round"/>
    <path d="M146 98h30c8 0 14 6 14 14v12c0 8-6 14-14 14h-18l-12 10v-10h-8c-8 0-14-6-14-14v-12c0-8 6-14 14-14z" fill="#386ce6"/>
    <path d="M146 110h28M146 120h20" stroke="#eef6ff" stroke-width="4.4" stroke-linecap="round"/>
    <path d="M145 165c11-2 18-7 28-17 10 10 17 15 28 17" fill="none" stroke="#2e66e2" stroke-width="5" stroke-linecap="round"/>
    <rect x="145" y="150" width="10" height="18" rx="2.5" fill="#2e66e2"/>
    <rect x="162" y="140" width="10" height="28" rx="2.5" fill="#2e66e2"/>
    <rect x="179" y="130" width="10" height="38" rx="2.5" fill="#2e66e2"/>
  </g>

  <g transform="rotate(20 186 164)" filter="url(#shadow)">
    <rect x="168" y="68" width="18" height="88" rx="8" fill="url(#ink)"/>
    <rect x="170.5" y="76" width="13" height="49" rx="6" fill="#48b6ff" opacity="0.58"/>
    <rect x="167" y="56" width="20" height="18" rx="7" fill="#eef5ff"/>
    <path d="M168 156h18l-9 19z" fill="#f7fbff"/>
    <path d="M173 156h8l-4 10z" fill="#1b4ba8"/>
  </g>
</svg>
