<svg xmlns="http://www.w3.org/2000/svg" viewBox="0 0 256 256">
  <defs>
    <linearGradient id="bg" x1="0%" y1="0%" x2="100%" y2="100%">
      <stop offset="0%" stop-color="#f97316" />
      <stop offset="100%" stop-color="#7c3aed" />
    </linearGradient>
    <linearGradient id="sword" x1="0%" y1="0%" x2="100%" y2="100%">
      <stop offset="0%" stop-color="#ffffff" />
      <stop offset="100%" stop-color="#dbeafe" />
    </linearGradient>
  </defs>
  <rect width="256" height="256" rx="56" fill="url(#bg)" />
  <circle cx="128" cy="128" r="82" fill="#ffffff" fill-opacity="0.1" />
  <path d="M86 74l28 28-11 11 29 29c9 9 9 24 0 33s-24 9-33 0l-29-29-11 11-28-28 55-55zm67 4l11 11-24 38-25 25-11-11 25-25 24-38zm11-11l18-18 25 25-18 18-25-25z" fill="url(#sword)" />
  <path d="M175 158l22 22-13 13-22-22z" fill="#fde68a" />
  <path d="M62 179c19 0 34 15 34 34H62c-9 0-17-8-17-17s8-17 17-17z" fill="#111827" fill-opacity="0.28" />
</svg>

