<svg width="512" height="512" viewBox="0 0 512 512" fill="none" xmlns="http://www.w3.org/2000/svg">
  <rect width="512" height="512" rx="132" fill="url(#bg)"/>
  <circle cx="390" cy="118" r="72" fill="url(#sun)" fill-opacity="0.85"/>
  <path d="M104 150C104 124.49 124.49 104 150 104H254C279.51 104 300 124.49 300 150V254C300 279.51 279.51 300 254 300H150C124.49 300 104 279.51 104 254V150Z" fill="white" fill-opacity="0.16"/>
  <path d="M212 158C212 148.059 220.059 140 230 140H362C371.941 140 380 148.059 380 158V290C380 299.941 371.941 308 362 308H230C220.059 308 212 299.941 212 290V158Z" fill="white" fill-opacity="0.28"/>
  <path d="M132 230C132 220.059 140.059 212 150 212H282C291.941 212 300 220.059 300 230V362C300 371.941 291.941 380 282 380H150C140.059 380 132 371.941 132 362V230Z" fill="white"/>
  <path d="M170 252H262" stroke="#0B1020" stroke-width="24" stroke-linecap="round"/>
  <path d="M170 302H228" stroke="#0B1020" stroke-width="24" stroke-linecap="round"/>
  <defs>
    <linearGradient id="bg" x1="76" y1="48" x2="434" y2="454" gradientUnits="userSpaceOnUse">
      <stop stop-color="#22C55E"/>
      <stop offset="0.5" stop-color="#0EA5E9"/>
      <stop offset="1" stop-color="#0F172A"/>
    </linearGradient>
    <linearGradient id="sun" x1="348" y1="62" x2="434" y2="160" gradientUnits="userSpaceOnUse">
      <stop stop-color="#FDE68A"/>
      <stop offset="1" stop-color="#FB7185"/>
    </linearGradient>
  </defs>
</svg>
